<?xml version="1.0" encoding="utf-8"?>
<!-- Generator: Adobe Illustrator 16.0.3, SVG Export Plug-In . SVG Version: 6.00 Build 0)  -->
<!DOCTYPE svg PUBLIC "-//W3C//DTD SVG 1.1//EN" "http://www.w3.org/Graphics/SVG/1.1/DTD/svg11.dtd">
<svg version="1.1" id="Layer_1" xmlns="http://www.w3.org/2000/svg" xmlns:xlink="http://www.w3.org/1999/xlink" x="0px" y="0px"
	 width="16px" height="16px" viewBox="0 0 16 16" enable-background="new 0 0 16 16" xml:space="preserve">
<path d="M8,0C3.582,0,0,3.582,0,8c0,4.418,3.582,8,8,8h8V8C16,3.582,12.419,0,8,0z M14,8.348v3.479c0,0,0,0.229,0,0.348
	c0,0.961-1.039,1.739-2,1.739s-2-0.778-2-1.739c0-0.119,0-0.348,0-0.348V8.348c0-1.445-0.959-2.782-2.304-2.782S5.282,6.656,5.282,8
	c0,1.345,0.779,2.435,2.664,2.435c0.96,0,1.766,0.821,1.766,1.782S8.96,14,8,14c-0.091,0-0.319,0-0.348,0
	c-2.783,0-5.74-2.691-5.74-5.957s2.864-5.935,6.131-5.935C11.311,2.108,14,4.735,14,8C14,8.118,14,8.348,14,8.348z"/>
</svg>
